<svg version="1.1" xmlns="http://www.w3.org/2000/svg" xmlns:xlink="http://www.w3.org/1999/xlink" width="665" height="440"><defs/><g><g transform="translate(-22,-70) scale(1,1)"><path fill="#C0C0C0" stroke="none" d="M 287 169 C 287 154.6405952 310.2811904 143 339 143 C 367.7188096 143 391 154.6405952 391 169 C 391 183.3594048 367.7188096 195 339 195 C 310.2811904 195 287 183.3594048 287 169 Z" opacity="0.2"/></g><g transform="translate(-22,-70) scale(1,1)"><path fill="#ffffff" stroke="none" d="M 280 162 C 280 147.6405952 303.2811904 136 332 136 C 360.7188096 136 384 147.6405952 384 162 C 384 176.3594048 360.7188096 188 332 188 C 303.2811904 188 280 176.3594048 280 162 Z"/></g><g transform="translate(-22,-70) scale(1,1)"><path fill="none" stroke="#000000" d="M 280 162 C 280 147.6405952 303.2811904 136 332 136 C 360.7188096 136 384 147.6405952 384 162 C 384 176.3594048 360.7188096 188 332 188 C 303.2811904 188 280 176.3594048 280 162 Z" stroke-miterlimit="10"/></g><g transform="translate(-22,-70) scale(1,1)"><g><path fill="none" stroke="none"/><text fill="#000000" stroke="none" font-family="Arial" font-size="13px" font-style="normal" font-weight="bold" text-decoration="none" x="304.898681640625" y="162.5">Thống kê</text><text fill="#000000" stroke="none" font-family="Arial" font-size="13px" font-style="normal" font-weight="bold" text-decoration="none" x="305.619140625" y="175.5">Danh thu</text></g></g><g transform="translate(-22,-70) scale(1,1)"><path fill="#C0C0C0" stroke="none" d="M 439 104 C 439 94.6111584 462.505048 87 491.5 87 C 520.494952 87 544 94.6111584 544 104 C 544 113.3888416 520.494952 121 491.5 121 C 462.505048 121 439 113.3888416 439 104 Z" opacity="0.2"/></g><g transform="translate(-22,-70) scale(1,1)"><path fill="#ffffff" stroke="none" d="M 432 97 C 432 87.6111584 455.505048 80 484.5 80 C 513.494952 80 537 87.6111584 537 97 C 537 106.3888416 513.494952 114 484.5 114 C 455.505048 114 432 106.3888416 432 97 Z"/></g><g transform="translate(-22,-70) scale(1,1)"><path fill="none" stroke="#000000" d="M 432 97 C 432 87.6111584 455.505048 80 484.5 80 C 513.494952 80 537 87.6111584 537 97 C 537 106.3888416 513.494952 114 484.5 114 C 455.505048 114 432 106.3888416 432 97 Z" stroke-miterlimit="10"/></g><g transform="translate(-22,-70) scale(1,1)"><g><path fill="none" stroke="none"/><text fill="#000000" stroke="none" font-family="Arial" font-size="13px" font-style="normal" font-weight="bold" text-decoration="none" x="453.78369140625" y="104">Theo ngày</text></g></g><g transform="translate(-22,-70) scale(1,1)"><path fill="#C0C0C0" stroke="none" d="M 447 224 C 447 214.6111584 469.1619024 207 496.5 207 C 523.8380976 207 546 214.6111584 546 224 C 546 233.3888416 523.8380976 241 496.5 241 C 469.1619024 241 447 233.3888416 447 224 Z" opacity="0.2"/></g><g transform="translate(-22,-70) scale(1,1)"><path fill="#ffffff" stroke="none" d="M 440 217 C 440 207.6111584 462.1619024 200 489.5 200 C 516.8380976 200 539 207.6111584 539 217 C 539 226.3888416 516.8380976 234 489.5 234 C 462.1619024 234 440 226.3888416 440 217 Z"/></g><g transform="translate(-22,-70) scale(1,1)"><path fill="none" stroke="#000000" d="M 440 217 C 440 207.6111584 462.1619024 200 489.5 200 C 516.8380976 200 539 207.6111584 539 217 C 539 226.3888416 516.8380976 234 489.5 234 C 462.1619024 234 440 226.3888416 440 217 Z" stroke-miterlimit="10"/></g><g transform="translate(-22,-70) scale(1,1)"><g><path fill="none" stroke="none"/><text fill="#000000" stroke="none" font-family="Arial" font-size="13px" font-style="normal" font-weight="bold" text-decoration="none" x="460.234130859375" y="224">Theo năm</text></g></g><g transform="translate(-22,-70) scale(1,1)"><path fill="#C0C0C0" stroke="none" d="M 463 160 C 463 150.6111584 488.0720512 143 519 143 C 549.9279488 143 575 150.6111584 575 160 C 575 169.3888416 549.9279488 177 519 177 C 488.0720512 177 463 169.3888416 463 160 Z" opacity="0.2"/></g><g transform="translate(-22,-70) scale(1,1)"><path fill="#ffffff" stroke="none" d="M 456 153 C 456 143.6111584 481.0720512 136 512 136 C 542.9279488 136 568 143.6111584 568 153 C 568 162.3888416 542.9279488 170 512 170 C 481.0720512 170 456 162.3888416 456 153 Z"/></g><g transform="translate(-22,-70) scale(1,1)"><path fill="none" stroke="#000000" d="M 456 153 C 456 143.6111584 481.0720512 136 512 136 C 542.9279488 136 568 143.6111584 568 153 C 568 162.3888416 542.9279488 170 512 170 C 481.0720512 170 456 162.3888416 456 153 Z" stroke-miterlimit="10"/></g><g transform="translate(-22,-70) scale(1,1)"><g><path fill="none" stroke="none"/><text fill="#000000" stroke="none" font-family="Arial" font-size="13px" font-style="normal" font-weight="bold" text-decoration="none" x="479.11279296875" y="160">Theo tháng</text></g></g><g transform="translate(-22,-70) scale(1,1)"><path fill="none" stroke="#000000" d="M 442 115 L 385 139" stroke-miterlimit="10"/></g><g transform="translate(-22,-70) scale(1,1)"><path fill="#FFFFFF" stroke="none" d="M 400.46549564544324 123.35332481193603 L 385 139 L 406.99962697380727 138.8718867168006"/></g><g transform="translate(-22,-70) scale(1,1)"><path fill="none" stroke="#000000" d="M 400.46549564544324 123.35332481193603 L 385 139 L 406.99962697380727 138.8718867168006 L 400.46549564544324 123.35332481193603" stroke-miterlimit="10"/></g><g transform="translate(-22,-70) scale(1,1)"><path fill="none" stroke="#000000" d="M 455 156 L 385 159" stroke-miterlimit="10"/></g><g transform="translate(-22,-70) scale(1,1)"><path fill="#FFFFFF" stroke="none" d="M 404.9462243500449 149.71839808127513 L 385 159 L 405.6671941539894 166.54102683998053"/></g><g transform="translate(-22,-70) scale(1,1)"><path fill="none" stroke="#000000" d="M 404.9462243500449 149.71839808127513 L 385 159 L 405.6671941539894 166.54102683998053 L 404.9462243500449 149.71839808127513" stroke-miterlimit="10"/></g><g transform="translate(-22,-70) scale(1,1)"><path fill="none" stroke="#000000" d="M 439 199 L 385 181" stroke-miterlimit="10"/></g><g transform="translate(-22,-70) scale(1,1)"><path fill="#FFFFFF" stroke="none" d="M 406.9446525938781 179.44044155800506 L 385 181 L 401.61998700990557 195.41443830992284"/></g><g transform="translate(-22,-70) scale(1,1)"><path fill="none" stroke="#000000" d="M 406.9446525938781 179.44044155800506 L 385 181 L 401.61998700990557 195.41443830992284 L 406.9446525938781 179.44044155800506" stroke-miterlimit="10"/></g><g transform="translate(-22,-70) scale(1,1)"><path fill="#C0C0C0" stroke="none" d="M 463 353 C 463 338.6405952 479.78932 327 500.5 327 C 521.21068 327 538 338.6405952 538 353 C 538 367.3594048 521.21068 379 500.5 379 C 479.78932 379 463 367.3594048 463 353 Z" opacity="0.2"/></g><g transform="translate(-22,-70) scale(1,1)"><path fill="#ffffff" stroke="none" d="M 456 346 C 456 331.6405952 472.78932 320 493.5 320 C 514.21068 320 531 331.6405952 531 346 C 531 360.3594048 514.21068 372 493.5 372 C 472.78932 372 456 360.3594048 456 346 Z"/></g><g transform="translate(-22,-70) scale(1,1)"><path fill="none" stroke="#000000" d="M 456 346 C 456 331.6405952 472.78932 320 493.5 320 C 514.21068 320 531 331.6405952 531 346 C 531 360.3594048 514.21068 372 493.5 372 C 472.78932 372 456 360.3594048 456 346 Z" stroke-miterlimit="10"/></g><g transform="translate(-22,-70) scale(1,1)"><g><path fill="none" stroke="none"/><text fill="#000000" stroke="none" font-family="Arial" font-size="13px" font-style="normal" font-weight="bold" text-decoration="none" x="472.5400390625" y="353">Update</text></g></g><g transform="translate(-22,-70) scale(1,1)"><path fill="#C0C0C0" stroke="none" d="M 583 272 C 583 262.6111584 598.4461744 255 617.5 255 C 636.5538256 255 652 262.6111584 652 272 C 652 281.3888416 636.5538256 289 617.5 289 C 598.4461744 289 583 281.3888416 583 272 Z" opacity="0.2"/></g><g transform="translate(-22,-70) scale(1,1)"><path fill="#ffffff" stroke="none" d="M 576 265 C 576 255.6111584 591.4461744 248 610.5 248 C 629.5538256 248 645 255.6111584 645 265 C 645 274.3888416 629.5538256 282 610.5 282 C 591.4461744 282 576 274.3888416 576 265 Z"/></g><g transform="translate(-22,-70) scale(1,1)"><path fill="none" stroke="#000000" d="M 576 265 C 576 255.6111584 591.4461744 248 610.5 248 C 629.5538256 248 645 255.6111584 645 265 C 645 274.3888416 629.5538256 282 610.5 282 C 591.4461744 282 576 274.3888416 576 265 Z" stroke-miterlimit="10"/></g><g transform="translate(-22,-70) scale(1,1)"><g><path fill="none" stroke="none"/><text fill="#000000" stroke="none" font-family="Arial" font-size="13px" font-style="normal" font-weight="bold" text-decoration="none" x="593.885009765625" y="272">Thêm</text></g></g><g transform="translate(-22,-70) scale(1,1)"><path fill="#C0C0C0" stroke="none" d="M 615 328 C 615 318.6111584 630.4461744 311 649.5 311 C 668.5538256 311 684 318.6111584 684 328 C 684 337.3888416 668.5538256 345 649.5 345 C 630.4461744 345 615 337.3888416 615 328 Z" opacity="0.2"/></g><g transform="translate(-22,-70) scale(1,1)"><path fill="#ffffff" stroke="none" d="M 608 321 C 608 311.6111584 623.4461744 304 642.5 304 C 661.5538256 304 677 311.6111584 677 321 C 677 330.3888416 661.5538256 338 642.5 338 C 623.4461744 338 608 330.3888416 608 321 Z"/></g><g transform="translate(-22,-70) scale(1,1)"><path fill="none" stroke="#000000" d="M 608 321 C 608 311.6111584 623.4461744 304 642.5 304 C 661.5538256 304 677 311.6111584 677 321 C 677 330.3888416 661.5538256 338 642.5 338 C 623.4461744 338 608 330.3888416 608 321 Z" stroke-miterlimit="10"/></g><g transform="translate(-22,-70) scale(1,1)"><g><path fill="none" stroke="none"/><text fill="#000000" stroke="none" font-family="Arial" font-size="13px" font-style="normal" font-weight="bold" text-decoration="none" x="630.9345703125" y="328">Xóa</text></g></g><g transform="translate(-22,-70) scale(1,1)"><path fill="#C0C0C0" stroke="none" d="M 583 384 C 583 374.6111584 598.4461744 367 617.5 367 C 636.5538256 367 652 374.6111584 652 384 C 652 393.3888416 636.5538256 401 617.5 401 C 598.4461744 401 583 393.3888416 583 384 Z" opacity="0.2"/></g><g transform="translate(-22,-70) scale(1,1)"><path fill="#ffffff" stroke="none" d="M 576 377 C 576 367.6111584 591.4461744 360 610.5 360 C 629.5538256 360 645 367.6111584 645 377 C 645 386.3888416 629.5538256 394 610.5 394 C 591.4461744 394 576 386.3888416 576 377 Z"/></g><g transform="translate(-22,-70) scale(1,1)"><path fill="none" stroke="#000000" d="M 576 377 C 576 367.6111584 591.4461744 360 610.5 360 C 629.5538256 360 645 367.6111584 645 377 C 645 386.3888416 629.5538256 394 610.5 394 C 591.4461744 394 576 386.3888416 576 377 Z" stroke-miterlimit="10"/></g><g transform="translate(-22,-70) scale(1,1)"><g><path fill="none" stroke="none"/><text fill="#000000" stroke="none" font-family="Arial" font-size="13px" font-style="normal" font-weight="bold" text-decoration="none" x="598.1982421875" y="384">Sửa</text></g></g><g transform="translate(-22,-70) scale(1,1)"><path fill="none" stroke="#000000" d="M 584 283 L 532 319" stroke-miterlimit="10"/></g><g transform="translate(-22,-70) scale(1,1)"><path fill="#FFFFFF" stroke="none" d="M 543.9191448027309 300.5085428597005 L 532 319 L 553.5035428538816 314.3526733780293"/></g><g transform="translate(-22,-70) scale(1,1)"><path fill="none" stroke="#000000" d="M 543.9191448027309 300.5085428597005 L 532 319 L 553.5035428538816 314.3526733780293 L 543.9191448027309 300.5085428597005" stroke-miterlimit="10"/></g><g transform="translate(-22,-70) scale(1,1)"><path fill="none" stroke="#000000" d="M 575 368 L 532 356" stroke-miterlimit="10"/></g><g transform="translate(-22,-70) scale(1,1)"><path fill="#FFFFFF" stroke="none" d="M 553.8403297246563 353.3542491579333 L 532 356 L 549.3142736134099 369.57261688989917"/></g><g transform="translate(-22,-70) scale(1,1)"><path fill="none" stroke="#000000" d="M 553.8403297246563 353.3542491579333 L 532 356 L 549.3142736134099 369.57261688989917 L 553.8403297246563 353.3542491579333" stroke-miterlimit="10"/></g><g transform="translate(-22,-70) scale(1,1)"><path fill="none" stroke="#000000" d="M 607 327 L 532 339" stroke-miterlimit="10"/></g><g transform="translate(-22,-70) scale(1,1)"><path fill="#FFFFFF" stroke="none" d="M 550.739948527372 327.4754900671895 L 532 339 L 553.4002038061336 344.10208555944956"/></g><g transform="translate(-22,-70) scale(1,1)"><path fill="none" stroke="#000000" d="M 550.739948527372 327.4754900671895 L 532 339 L 553.4002038061336 344.10208555944956 L 550.739948527372 327.4754900671895" stroke-miterlimit="10"/></g><g transform="translate(-22,-70) scale(1,1)"><path fill="#C0C0C0" stroke="none" d="M 295 265 C 295 250.6405952 314.6994688 239 339 239 C 363.3005312 239 383 250.6405952 383 265 C 383 279.3594048 363.3005312 291 339 291 C 314.6994688 291 295 279.3594048 295 265 Z" opacity="0.2"/></g><g transform="translate(-22,-70) scale(1,1)"><path fill="#ffffff" stroke="none" d="M 288 258 C 288 243.6405952 307.6994688 232 332 232 C 356.3005312 232 376 243.6405952 376 258 C 376 272.3594048 356.3005312 284 332 284 C 307.6994688 284 288 272.3594048 288 258 Z"/></g><g transform="translate(-22,-70) scale(1,1)"><path fill="none" stroke="#000000" d="M 288 258 C 288 243.6405952 307.6994688 232 332 232 C 356.3005312 232 376 243.6405952 376 258 C 376 272.3594048 356.3005312 284 332 284 C 307.6994688 284 288 272.3594048 288 258 Z" stroke-miterlimit="10"/></g><g transform="translate(-22,-70) scale(1,1)"><g><path fill="none" stroke="none"/><text fill="#000000" stroke="none" font-family="Arial" font-size="13px" font-style="normal" font-weight="bold" text-decoration="none" x="311.043212890625" y="258.5">Quản lí</text><text fill="#000000" stroke="none" font-family="Arial" font-size="13px" font-style="normal" font-weight="bold" text-decoration="none" x="312.84912109375" y="271.5">thiết bị</text></g></g><g transform="translate(-22,-70) scale(1,1)"><path fill="none" stroke="#000000" d="M 470 319 L 424 264 L 377 261" stroke-miterlimit="10" stroke-dasharray="3"/></g><g transform="translate(-22,-70) scale(1,1)"><path fill="none" stroke="#000000" d="M 387.41018223737694 257.4463953815032 L 377 261 L 386.8738883768319 265.84833253004206" stroke-miterlimit="10"/></g><g transform="translate(-22,-70) scale(1,1)"><g><path fill="none" stroke="none"/><text fill="#000000" stroke="none" font-family="Arial" font-size="13px" font-style="normal" font-weight="normal" text-decoration="none" x="367.5" y="284.5">«extend»</text></g></g><g transform="translate(-22,-70) scale(1,1)"><path fill="#C0C0C0" stroke="none" d="M 287 369 C 287 354.6405952 310.2811904 343 339 343 C 367.7188096 343 391 354.6405952 391 369 C 391 383.3594048 367.7188096 395 339 395 C 310.2811904 395 287 383.3594048 287 369 Z" opacity="0.2"/></g><g transform="translate(-22,-70) scale(1,1)"><path fill="#ffffff" stroke="none" d="M 280 362 C 280 347.6405952 303.2811904 336 332 336 C 360.7188096 336 384 347.6405952 384 362 C 384 376.3594048 360.7188096 388 332 388 C 303.2811904 388 280 376.3594048 280 362 Z"/></g><g transform="translate(-22,-70) scale(1,1)"><path fill="none" stroke="#000000" d="M 280 362 C 280 347.6405952 303.2811904 336 332 336 C 360.7188096 336 384 347.6405952 384 362 C 384 376.3594048 360.7188096 388 332 388 C 303.2811904 388 280 376.3594048 280 362 Z" stroke-miterlimit="10"/></g><g transform="translate(-22,-70) scale(1,1)"><g><path fill="none" stroke="none"/><text fill="#000000" stroke="none" font-family="Arial" font-size="13px" font-style="normal" font-weight="bold" text-decoration="none" x="311.043212890625" y="362.5">Quản lí</text><text fill="#000000" stroke="none" font-family="Arial" font-size="13px" font-style="normal" font-weight="bold" text-decoration="none" x="303.81005859375" y="375.5">nhân viên</text></g></g><g transform="translate(-22,-70) scale(1,1)"><path fill="none" stroke="#000000" d="M 455 360 L 432 368 L 385 365" stroke-miterlimit="10" stroke-dasharray="3"/></g><g transform="translate(-22,-70) scale(1,1)"><path fill="none" stroke="#000000" d="M 395.41018223737694 361.4463953815032 L 385 365 L 394.8738883768319 369.84833253004206" stroke-miterlimit="10"/></g><g transform="translate(-22,-70) scale(1,1)"><g><path fill="none" stroke="none"/><text fill="#000000" stroke="none" font-family="Arial" font-size="13px" font-style="normal" font-weight="normal" text-decoration="none" x="387.5" y="390.5">«extend»</text></g></g><g transform="translate(-22,-70) scale(1,1)"><path fill="#C0C0C0" stroke="none" d="M 287 481 C 287 466.6405952 312.0720512 455 343 455 C 373.9279488 455 399 466.6405952 399 481 C 399 495.3594048 373.9279488 507 343 507 C 312.0720512 507 287 495.3594048 287 481 Z" opacity="0.2"/></g><g transform="translate(-22,-70) scale(1,1)"><path fill="#ffffff" stroke="none" d="M 280 474 C 280 459.6405952 305.0720512 448 336 448 C 366.9279488 448 392 459.6405952 392 474 C 392 488.3594048 366.9279488 500 336 500 C 305.0720512 500 280 488.3594048 280 474 Z"/></g><g transform="translate(-22,-70) scale(1,1)"><path fill="none" stroke="#000000" d="M 280 474 C 280 459.6405952 305.0720512 448 336 448 C 366.9279488 448 392 459.6405952 392 474 C 392 488.3594048 366.9279488 500 336 500 C 305.0720512 500 280 488.3594048 280 474 Z" stroke-miterlimit="10"/></g><g transform="translate(-22,-70) scale(1,1)"><g><path fill="none" stroke="none"/><text fill="#000000" stroke="none" font-family="Arial" font-size="13px" font-style="normal" font-weight="bold" text-decoration="none" x="315.043212890625" y="474.5">Quản lí</text><text fill="#000000" stroke="none" font-family="Arial" font-size="13px" font-style="normal" font-weight="bold" text-decoration="none" x="315.405029296875" y="487.5">dịch vụ</text></g></g><g transform="translate(-22,-70) scale(1,1)"><path fill="none" stroke="#000000" d="M 483 373 L 464 424 L 393 452" stroke-miterlimit="10" stroke-dasharray="3"/></g><g transform="translate(-22,-70) scale(1,1)"><path fill="none" stroke="#000000" d="M 400.90972312862004 444.35563736936996 L 393 452 L 403.99839951552286 452.1876382075878" stroke-miterlimit="10"/></g><g transform="translate(-22,-70) scale(1,1)"><g><path fill="none" stroke="none"/><text fill="#000000" stroke="none" font-family="Arial" font-size="13px" font-style="normal" font-weight="normal" text-decoration="none" x="448.5" y="457.5">«extend»</text></g></g><g transform="translate(-22,-70) scale(1,1)"><path fill="#C0C0C0" stroke="none" d="M 127 320 C 127 310.6111584 151.1766208 303 181 303 C 210.8233792 303 235 310.6111584 235 320 C 235 329.3888416 210.8233792 337 181 337 C 151.1766208 337 127 329.3888416 127 320 Z" opacity="0.2"/></g><g transform="translate(-22,-70) scale(1,1)"><path fill="#ffffff" stroke="none" d="M 120 313 C 120 303.6111584 144.1766208 296 174 296 C 203.8233792 296 228 303.6111584 228 313 C 228 322.3888416 203.8233792 330 174 330 C 144.1766208 330 120 322.3888416 120 313 Z"/></g><g transform="translate(-22,-70) scale(1,1)"><path fill="none" stroke="#000000" d="M 120 313 C 120 303.6111584 144.1766208 296 174 296 C 203.8233792 296 228 303.6111584 228 313 C 228 322.3888416 203.8233792 330 174 330 C 144.1766208 330 120 322.3888416 120 313 Z" stroke-miterlimit="10"/></g><g transform="translate(-22,-70) scale(1,1)"><g><path fill="none" stroke="none"/><text fill="#000000" stroke="none" font-family="Arial" font-size="13px" font-style="normal" font-weight="bold" text-decoration="none" x="142.195068359375" y="320">Đăng nhập</text></g></g><g transform="translate(-22,-70) scale(1,1)"><path fill="#ffffff" stroke="none" d="M 49.85026828835227 297.68 C 49.85026828835227 292.886167936 53.736110613297726 289 58.529541015625 289 C 63.322971417952274 289 67.20881374289773 292.886167936 67.20881374289773 297.68 C 67.20881374289773 302.473832064 63.322971417952274 306.36 58.529541015625 306.36 C 53.736110613297726 306.36 49.85026828835227 302.473832064 49.85026828835227 297.68 Z"/></g><g transform="translate(-22,-70) scale(1,1)"><path fill="none" stroke="#000000" d="M 49.85026828835227 297.68 C 49.85026828835227 292.886167936 53.736110613297726 289 58.529541015625 289 C 63.322971417952274 289 67.20881374289773 292.886167936 67.20881374289773 297.68 C 67.20881374289773 302.473832064 63.322971417952274 306.36 58.529541015625 306.36 C 53.736110613297726 306.36 49.85026828835227 302.473832064 49.85026828835227 297.68 Z" stroke-miterlimit="10"/></g><g transform="translate(-22,-70) scale(1,1)"><path fill="none" stroke="#000000" d="M 58.529541015625 306.36 L 58.529541015625 323.64" stroke-miterlimit="10"/></g><g transform="translate(-22,-70) scale(1,1)"><path fill="none" stroke="#000000" d="M 49.33972283380682 312.84 L 67.71935919744318 312.84" stroke-miterlimit="10"/></g><g transform="translate(-22,-70) scale(1,1)"><path fill="none" stroke="#000000" d="M 58.529541015625 323.64 L 45.765904651988635 341" stroke-miterlimit="10"/></g><g transform="translate(-22,-70) scale(1,1)"><path fill="none" stroke="#000000" d="M 58.529541015625 323.64 L 71.29317737926137 341" stroke-miterlimit="10"/></g><g transform="translate(-22,-70) scale(1,1)"><g><path fill="none" stroke="none"/><text fill="#000000" stroke="none" font-family="Arial" font-size="13px" font-style="normal" font-weight="bold" text-decoration="none" x="37.57275390625" y="361.5">Quản lí</text></g></g><g transform="translate(-22,-70) scale(1,1)"><path fill="none" stroke="#000000" d="M 86 324 L 119 320" stroke-miterlimit="10"/></g><g transform="translate(-22,-70) scale(1,1)"><path fill="#C0C0C0" stroke="none" d="M 135 424 C 135 414.6111584 157.8334752 407 186 407 C 214.1665248 407 237 414.6111584 237 424 C 237 433.3888416 214.1665248 441 186 441 C 157.8334752 441 135 433.3888416 135 424 Z" opacity="0.2"/></g><g transform="translate(-22,-70) scale(1,1)"><path fill="#ffffff" stroke="none" d="M 128 417 C 128 407.6111584 150.8334752 400 179 400 C 207.1665248 400 230 407.6111584 230 417 C 230 426.3888416 207.1665248 434 179 434 C 150.8334752 434 128 426.3888416 128 417 Z"/></g><g transform="translate(-22,-70) scale(1,1)"><path fill="none" stroke="#000000" d="M 128 417 C 128 407.6111584 150.8334752 400 179 400 C 207.1665248 400 230 407.6111584 230 417 C 230 426.3888416 207.1665248 434 179 434 C 150.8334752 434 128 426.3888416 128 417 Z" stroke-miterlimit="10"/></g><g transform="translate(-22,-70) scale(1,1)"><g><path fill="none" stroke="none"/><text fill="#000000" stroke="none" font-family="Arial" font-size="13px" font-style="normal" font-weight="bold" text-decoration="none" x="149.369140625" y="424">Đăng xuất</text></g></g><g transform="translate(-22,-70) scale(1,1)"><path fill="none" stroke="#000000" d="M 178 399 L 175 331" stroke-miterlimit="10" stroke-dasharray="3"/></g><g transform="translate(-22,-70) scale(1,1)"><path fill="none" stroke="#000000" d="M 179.65334470219818 340.9672655770038 L 175 331 L 171.24249051473623 341.33833267350946" stroke-miterlimit="10"/></g><g transform="translate(-22,-70) scale(1,1)"><g><path fill="none" stroke="none"/><text fill="#000000" stroke="none" font-family="Arial" font-size="13px" font-style="normal" font-weight="normal" text-decoration="none" x="119.5" y="371.5">«extend»</text></g></g><g transform="translate(-22,-70) scale(1,1)"><path fill="#C0C0C0" stroke="none" d="M 127 225 C 127 210.6405952 152.0720512 199 183 199 C 213.9279488 199 239 210.6405952 239 225 C 239 239.3594048 213.9279488 251 183 251 C 152.0720512 251 127 239.3594048 127 225 Z" opacity="0.2"/></g><g transform="translate(-22,-70) scale(1,1)"><path fill="#ffffff" stroke="none" d="M 120 218 C 120 203.6405952 145.0720512 192 176 192 C 206.9279488 192 232 203.6405952 232 218 C 232 232.3594048 206.9279488 244 176 244 C 145.0720512 244 120 232.3594048 120 218 Z"/></g><g transform="translate(-22,-70) scale(1,1)"><path fill="none" stroke="#000000" d="M 120 218 C 120 203.6405952 145.0720512 192 176 192 C 206.9279488 192 232 203.6405952 232 218 C 232 232.3594048 206.9279488 244 176 244 C 145.0720512 244 120 232.3594048 120 218 Z" stroke-miterlimit="10"/></g><g transform="translate(-22,-70) scale(1,1)"><g><path fill="none" stroke="none"/><text fill="#000000" stroke="none" font-family="Arial" font-size="13px" font-style="normal" font-weight="bold" text-decoration="none" x="153.60546875" y="218.5">Đổi mật</text><text fill="#000000" stroke="none" font-family="Arial" font-size="13px" font-style="normal" font-weight="bold" text-decoration="none" x="161.905029296875" y="231.5">khẩu</text></g></g><g transform="translate(-22,-70) scale(1,1)"><path fill="none" stroke="#000000" d="M 175 245 L 174 295" stroke-miterlimit="10" stroke-dasharray="3"/></g><g transform="translate(-22,-70) scale(1,1)"><path fill="none" stroke="#000000" d="M 169.9945367536925 284.755183545691 L 174 295 L 178.41188896359589 284.9235305898891" stroke-miterlimit="10"/></g><g transform="translate(-22,-70) scale(1,1)"><g><path fill="none" stroke="none"/><text fill="#000000" stroke="none" font-family="Arial" font-size="13px" font-style="normal" font-weight="normal" text-decoration="none" x="112.5" y="275.5">«extend»</text></g></g><g transform="translate(-22,-70) scale(1,1)"><path fill="none" stroke="#000000" d="M 193 295 L 304 189" stroke-miterlimit="10"/></g><g transform="translate(-22,-70) scale(1,1)"><path fill="none" stroke="#000000" d="M 299.5574983556336 199.06301044120505 L 304 189 L 293.743054039709 192.97429988396325" stroke-miterlimit="10"/></g><g transform="translate(-22,-70) scale(1,1)"><path fill="none" stroke="#000000" d="M 226 295 L 287 274" stroke-miterlimit="10"/></g><g transform="translate(-22,-70) scale(1,1)"><path fill="none" stroke="#000000" d="M 278.7610614473828 281.28833942172 L 287 274 L 276.02055645097767 273.32782490835257" stroke-miterlimit="10"/></g><g transform="translate(-22,-70) scale(1,1)"><path fill="none" stroke="#000000" d="M 229 330 L 279 346" stroke-miterlimit="10"/></g><g transform="translate(-22,-70) scale(1,1)"><path fill="none" stroke="#000000" d="M 268.03786423061723 346.9119097398422 L 279 346 L 270.60378190030934 338.89341702205434" stroke-miterlimit="10"/></g><g transform="translate(-22,-70) scale(1,1)"><path fill="none" stroke="#000000" d="M 192 331 L 309 447" stroke-miterlimit="10"/></g><g transform="translate(-22,-70) scale(1,1)"><path fill="none" stroke="#000000" d="M 298.81935230558116 442.8341372415639 L 309 447 L 304.74690478438794 436.8554851724226" stroke-miterlimit="10"/></g></g></svg>