<svg version="1.1" xmlns="http://www.w3.org/2000/svg" xmlns:xlink="http://www.w3.org/1999/xlink" width="924" height="488"><defs/><g><g transform="translate(-126,-46) scale(1,1)"><path fill="#ffffff" stroke="none" d="M 152.40935031960228 257.68 C 152.40935031960228 252.886167936 156.29519264454774 249 161.088623046875 249 C 165.88205344920226 249 169.76789577414772 252.886167936 169.76789577414772 257.68 C 169.76789577414772 262.473832064 165.88205344920226 266.36 161.088623046875 266.36 C 156.29519264454774 266.36 152.40935031960228 262.473832064 152.40935031960228 257.68 Z"/></g><g transform="translate(-126,-46) scale(1,1)"><path fill="none" stroke="#000000" d="M 152.40935031960228 257.68 C 152.40935031960228 252.886167936 156.29519264454774 249 161.088623046875 249 C 165.88205344920226 249 169.76789577414772 252.886167936 169.76789577414772 257.68 C 169.76789577414772 262.473832064 165.88205344920226 266.36 161.088623046875 266.36 C 156.29519264454774 266.36 152.40935031960228 262.473832064 152.40935031960228 257.68 Z" stroke-miterlimit="10"/></g><g transform="translate(-126,-46) scale(1,1)"><path fill="none" stroke="#000000" d="M 161.088623046875 266.36 L 161.088623046875 283.64" stroke-miterlimit="10"/></g><g transform="translate(-126,-46) scale(1,1)"><path fill="none" stroke="#000000" d="M 151.89880486505683 272.84 L 170.27844122869317 272.84" stroke-miterlimit="10"/></g><g transform="translate(-126,-46) scale(1,1)"><path fill="none" stroke="#000000" d="M 161.088623046875 283.64 L 148.32498668323865 301" stroke-miterlimit="10"/></g><g transform="translate(-126,-46) scale(1,1)"><path fill="none" stroke="#000000" d="M 161.088623046875 283.64 L 173.85225941051135 301" stroke-miterlimit="10"/></g><g transform="translate(-126,-46) scale(1,1)"><g><path fill="none" stroke="none"/><text fill="#000000" stroke="none" font-family="Arial" font-size="13px" font-style="normal" font-weight="bold" text-decoration="none" x="147.364990234375" y="321.5">User</text></g></g><g transform="translate(-126,-46) scale(1,1)"><path fill="#C0C0C0" stroke="none" d="M 215 297 C 215 282.6405952 243.6537728 271 279 271 C 314.3462272 271 343 282.6405952 343 297 C 343 311.3594048 314.3462272 323 279 323 C 243.6537728 323 215 311.3594048 215 297 Z" opacity="0.2"/></g><g transform="translate(-126,-46) scale(1,1)"><path fill="#ffffff" stroke="none" d="M 208 290 C 208 275.6405952 236.6537728 264 272 264 C 307.3462272 264 336 275.6405952 336 290 C 336 304.3594048 307.3462272 316 272 316 C 236.6537728 316 208 304.3594048 208 290 Z"/></g><g transform="translate(-126,-46) scale(1,1)"><path fill="none" stroke="#000000" d="M 208 290 C 208 275.6405952 236.6537728 264 272 264 C 307.3462272 264 336 275.6405952 336 290 C 336 304.3594048 307.3462272 316 272 316 C 236.6537728 316 208 304.3594048 208 290 Z" stroke-miterlimit="10"/></g><g transform="translate(-126,-46) scale(1,1)"><g><path fill="none" stroke="none"/><text fill="#000000" stroke="none" font-family="Arial" font-size="13px" font-style="normal" font-weight="bold" text-decoration="none" x="240.195068359375" y="297">Đăng nhập</text></g></g><g transform="translate(-126,-46) scale(1,1)"><path fill="#C0C0C0" stroke="none" d="M 351 176 C 351 166.6111584 373.6096176 159 401.5 159 C 429.3903824 159 452 166.6111584 452 176 C 452 185.3888416 429.3903824 193 401.5 193 C 373.6096176 193 351 185.3888416 351 176 Z" opacity="0.2"/></g><g transform="translate(-126,-46) scale(1,1)"><path fill="#ffffff" stroke="none" d="M 344 169 C 344 159.6111584 366.6096176 152 394.5 152 C 422.3903824 152 445 159.6111584 445 169 C 445 178.3888416 422.3903824 186 394.5 186 C 366.6096176 186 344 178.3888416 344 169 Z"/></g><g transform="translate(-126,-46) scale(1,1)"><path fill="none" stroke="#000000" d="M 344 169 C 344 159.6111584 366.6096176 152 394.5 152 C 422.3903824 152 445 159.6111584 445 169 C 445 178.3888416 422.3903824 186 394.5 186 C 366.6096176 186 344 178.3888416 344 169 Z" stroke-miterlimit="10"/></g><g transform="translate(-126,-46) scale(1,1)"><g><path fill="none" stroke="none"/><text fill="#000000" stroke="none" font-family="Arial" font-size="13px" font-style="normal" font-weight="bold" text-decoration="none" x="365.23095703125" y="176">Nhân viên</text></g></g><g transform="translate(-126,-46) scale(1,1)"><path fill="#C0C0C0" stroke="none" d="M 351 448 C 351 438.6111584 373.6096176 431 401.5 431 C 429.3903824 431 452 438.6111584 452 448 C 452 457.3888416 429.3903824 465 401.5 465 C 373.6096176 465 351 457.3888416 351 448 Z" opacity="0.2"/></g><g transform="translate(-126,-46) scale(1,1)"><path fill="#ffffff" stroke="none" d="M 344 441 C 344 431.6111584 366.6096176 424 394.5 424 C 422.3903824 424 445 431.6111584 445 441 C 445 450.3888416 422.3903824 458 394.5 458 C 366.6096176 458 344 450.3888416 344 441 Z"/></g><g transform="translate(-126,-46) scale(1,1)"><path fill="none" stroke="#000000" d="M 344 441 C 344 431.6111584 366.6096176 424 394.5 424 C 422.3903824 424 445 431.6111584 445 441 C 445 450.3888416 422.3903824 458 394.5 458 C 366.6096176 458 344 450.3888416 344 441 Z" stroke-miterlimit="10"/></g><g transform="translate(-126,-46) scale(1,1)"><g><path fill="none" stroke="none"/><text fill="#000000" stroke="none" font-family="Arial" font-size="13px" font-style="normal" font-weight="bold" text-decoration="none" x="373.543212890625" y="448">Quản lí</text></g></g><g transform="translate(-126,-46) scale(1,1)"><path fill="none" stroke="#000000" d="M 187 288 L 207 288" stroke-miterlimit="10"/></g><g transform="translate(-126,-46) scale(1,1)"><path fill="none" stroke="#000000" d="M 196.83732514237585 292.209517756016 L 207 288 L 196.83732514237585 283.790482243984" stroke-miterlimit="10"/></g><g transform="translate(-126,-46) scale(1,1)"><path fill="none" stroke="#000000" d="M 299 263 L 376 187" stroke-miterlimit="10"/></g><g transform="translate(-126,-46) scale(1,1)"><path fill="none" stroke="#000000" d="M 379 423 L 294 317" stroke-miterlimit="10"/></g><g transform="translate(-126,-46) scale(1,1)"><path fill="#C0C0C0" stroke="none" d="M 487 385 C 487 370.6405952 512.0720512 359 543 359 C 573.9279488 359 599 370.6405952 599 385 C 599 399.3594048 573.9279488 411 543 411 C 512.0720512 411 487 399.3594048 487 385 Z" opacity="0.2"/></g><g transform="translate(-126,-46) scale(1,1)"><path fill="#ffffff" stroke="none" d="M 480 378 C 480 363.6405952 505.0720512 352 536 352 C 566.9279488 352 592 363.6405952 592 378 C 592 392.3594048 566.9279488 404 536 404 C 505.0720512 404 480 392.3594048 480 378 Z"/></g><g transform="translate(-126,-46) scale(1,1)"><path fill="none" stroke="#000000" d="M 480 378 C 480 363.6405952 505.0720512 352 536 352 C 566.9279488 352 592 363.6405952 592 378 C 592 392.3594048 566.9279488 404 536 404 C 505.0720512 404 480 392.3594048 480 378 Z" stroke-miterlimit="10"/></g><g transform="translate(-126,-46) scale(1,1)"><g><path fill="none" stroke="none"/><text fill="#000000" stroke="none" font-family="Arial" font-size="13px" font-style="normal" font-weight="bold" text-decoration="none" x="515.043212890625" y="378.5">Quản lí</text><text fill="#000000" stroke="none" font-family="Arial" font-size="13px" font-style="normal" font-weight="bold" text-decoration="none" x="516.84912109375" y="391.5">thiết bị</text></g></g><g transform="translate(-126,-46) scale(1,1)"><path fill="#C0C0C0" stroke="none" d="M 487 449 C 487 434.6405952 512.0720512 423 543 423 C 573.9279488 423 599 434.6405952 599 449 C 599 463.3594048 573.9279488 475 543 475 C 512.0720512 475 487 463.3594048 487 449 Z" opacity="0.2"/></g><g transform="translate(-126,-46) scale(1,1)"><path fill="#ffffff" stroke="none" d="M 480 442 C 480 427.6405952 505.0720512 416 536 416 C 566.9279488 416 592 427.6405952 592 442 C 592 456.3594048 566.9279488 468 536 468 C 505.0720512 468 480 456.3594048 480 442 Z"/></g><g transform="translate(-126,-46) scale(1,1)"><path fill="none" stroke="#000000" d="M 480 442 C 480 427.6405952 505.0720512 416 536 416 C 566.9279488 416 592 427.6405952 592 442 C 592 456.3594048 566.9279488 468 536 468 C 505.0720512 468 480 456.3594048 480 442 Z" stroke-miterlimit="10"/></g><g transform="translate(-126,-46) scale(1,1)"><g><path fill="none" stroke="none"/><text fill="#000000" stroke="none" font-family="Arial" font-size="13px" font-style="normal" font-weight="bold" text-decoration="none" x="515.043212890625" y="442.5">Quản lí</text><text fill="#000000" stroke="none" font-family="Arial" font-size="13px" font-style="normal" font-weight="bold" text-decoration="none" x="507.81005859375" y="455.5">nhân viên</text></g></g><g transform="translate(-126,-46) scale(1,1)"><path fill="#C0C0C0" stroke="none" d="M 487 505 C 487 490.6405952 512.0720512 479 543 479 C 573.9279488 479 599 490.6405952 599 505 C 599 519.3594048 573.9279488 531 543 531 C 512.0720512 531 487 519.3594048 487 505 Z" opacity="0.2"/></g><g transform="translate(-126,-46) scale(1,1)"><path fill="#ffffff" stroke="none" d="M 480 498 C 480 483.6405952 505.0720512 472 536 472 C 566.9279488 472 592 483.6405952 592 498 C 592 512.3594048 566.9279488 524 536 524 C 505.0720512 524 480 512.3594048 480 498 Z"/></g><g transform="translate(-126,-46) scale(1,1)"><path fill="none" stroke="#000000" d="M 480 498 C 480 483.6405952 505.0720512 472 536 472 C 566.9279488 472 592 483.6405952 592 498 C 592 512.3594048 566.9279488 524 536 524 C 505.0720512 524 480 512.3594048 480 498 Z" stroke-miterlimit="10"/></g><g transform="translate(-126,-46) scale(1,1)"><g><path fill="none" stroke="none"/><text fill="#000000" stroke="none" font-family="Arial" font-size="13px" font-style="normal" font-weight="bold" text-decoration="none" x="508.898681640625" y="498.5">Thống kê</text><text fill="#000000" stroke="none" font-family="Arial" font-size="13px" font-style="normal" font-weight="bold" text-decoration="none" x="512.869140625" y="511.5">danh số</text></g></g><g transform="translate(-126,-46) scale(1,1)"><path fill="none" stroke="#000000" d="M 435 423 L 479 403" stroke-miterlimit="10"/></g><g transform="translate(-126,-46) scale(1,1)"><path fill="none" stroke="#000000" d="M 439 459 L 479 475" stroke-miterlimit="10"/></g><g transform="translate(-126,-46) scale(1,1)"><path fill="none" stroke="#000000" d="M 446 441 L 479 442" stroke-miterlimit="10"/></g><g transform="translate(-126,-46) scale(1,1)"><path fill="#C0C0C0" stroke="none" d="M 487 209 C 487 194.6405952 513.862912 183 547 183 C 580.137088 183 607 194.6405952 607 209 C 607 223.3594048 580.137088 235 547 235 C 513.862912 235 487 223.3594048 487 209 Z" opacity="0.2"/></g><g transform="translate(-126,-46) scale(1,1)"><path fill="#ffffff" stroke="none" d="M 480 202 C 480 187.6405952 506.862912 176 540 176 C 573.137088 176 600 187.6405952 600 202 C 600 216.3594048 573.137088 228 540 228 C 506.862912 228 480 216.3594048 480 202 Z"/></g><g transform="translate(-126,-46) scale(1,1)"><path fill="none" stroke="#000000" d="M 480 202 C 480 187.6405952 506.862912 176 540 176 C 573.137088 176 600 187.6405952 600 202 C 600 216.3594048 573.137088 228 540 228 C 506.862912 228 480 216.3594048 480 202 Z" stroke-miterlimit="10"/></g><g transform="translate(-126,-46) scale(1,1)"><g><path fill="none" stroke="none"/><text fill="#000000" stroke="none" font-family="Arial" font-size="13px" font-style="normal" font-weight="bold" text-decoration="none" x="508.201416015625" y="202.5">Quản lí đặt</text><text fill="#000000" stroke="none" font-family="Arial" font-size="13px" font-style="normal" font-weight="bold" text-decoration="none" x="521.925048828125" y="215.5">phòng</text></g></g><g transform="translate(-126,-46) scale(1,1)"><path fill="#C0C0C0" stroke="none" d="M 487 273 C 487 258.6405952 512.0720512 247 543 247 C 573.9279488 247 599 258.6405952 599 273 C 599 287.3594048 573.9279488 299 543 299 C 512.0720512 299 487 287.3594048 487 273 Z" opacity="0.2"/></g><g transform="translate(-126,-46) scale(1,1)"><path fill="#ffffff" stroke="none" d="M 480 266 C 480 251.6405952 505.0720512 240 536 240 C 566.9279488 240 592 251.6405952 592 266 C 592 280.3594048 566.9279488 292 536 292 C 505.0720512 292 480 280.3594048 480 266 Z"/></g><g transform="translate(-126,-46) scale(1,1)"><path fill="none" stroke="#000000" d="M 480 266 C 480 251.6405952 505.0720512 240 536 240 C 566.9279488 240 592 251.6405952 592 266 C 592 280.3594048 566.9279488 292 536 292 C 505.0720512 292 480 280.3594048 480 266 Z" stroke-miterlimit="10"/></g><g transform="translate(-126,-46) scale(1,1)"><g><path fill="none" stroke="none"/><text fill="#000000" stroke="none" font-family="Arial" font-size="13px" font-style="normal" font-weight="bold" text-decoration="none" x="515.043212890625" y="266.5">Quản lí</text><text fill="#000000" stroke="none" font-family="Arial" font-size="13px" font-style="normal" font-weight="bold" text-decoration="none" x="517.925048828125" y="279.5">phòng</text></g></g><g transform="translate(-126,-46) scale(1,1)"><path fill="none" stroke="#000000" d="M 394 423 L 394 187" stroke-miterlimit="10"/></g><g transform="translate(-126,-46) scale(1,1)"><path fill="none" stroke="#000000" d="M 398.209517756016 197.16267485762415 L 394 187 L 389.790482243984 197.16267485762415" stroke-miterlimit="10"/></g><g transform="translate(-126,-46) scale(1,1)"><path fill="#C0C0C0" stroke="none" d="M 487 145 C 487 130.6405952 515.6537728 119 551 119 C 586.3462272 119 615 130.6405952 615 145 C 615 159.3594048 586.3462272 171 551 171 C 515.6537728 171 487 159.3594048 487 145 Z" opacity="0.2"/></g><g transform="translate(-126,-46) scale(1,1)"><path fill="#ffffff" stroke="none" d="M 480 138 C 480 123.6405952 508.6537728 112 544 112 C 579.3462272 112 608 123.6405952 608 138 C 608 152.3594048 579.3462272 164 544 164 C 508.6537728 164 480 152.3594048 480 138 Z"/></g><g transform="translate(-126,-46) scale(1,1)"><path fill="none" stroke="#000000" d="M 480 138 C 480 123.6405952 508.6537728 112 544 112 C 579.3462272 112 608 123.6405952 608 138 C 608 152.3594048 579.3462272 164 544 164 C 508.6537728 164 480 152.3594048 480 138 Z" stroke-miterlimit="10"/></g><g transform="translate(-126,-46) scale(1,1)"><g><path fill="none" stroke="none"/><text fill="#000000" stroke="none" font-family="Arial" font-size="13px" font-style="normal" font-weight="bold" text-decoration="none" x="506.77734375" y="138.5">Quản lí nhận</text><text fill="#000000" stroke="none" font-family="Arial" font-size="13px" font-style="normal" font-weight="bold" text-decoration="none" x="525.925048828125" y="151.5">phòng</text></g></g><g transform="translate(-126,-46) scale(1,1)"><path fill="#C0C0C0" stroke="none" d="M 487 89 C 487 74.6405952 515.6537728 63 551 63 C 586.3462272 63 615 74.6405952 615 89 C 615 103.3594048 586.3462272 115 551 115 C 515.6537728 115 487 103.3594048 487 89 Z" opacity="0.2"/></g><g transform="translate(-126,-46) scale(1,1)"><path fill="#ffffff" stroke="none" d="M 480 82 C 480 67.6405952 508.6537728 56 544 56 C 579.3462272 56 608 67.6405952 608 82 C 608 96.3594048 579.3462272 108 544 108 C 508.6537728 108 480 96.3594048 480 82 Z"/></g><g transform="translate(-126,-46) scale(1,1)"><path fill="none" stroke="#000000" d="M 480 82 C 480 67.6405952 508.6537728 56 544 56 C 579.3462272 56 608 67.6405952 608 82 C 608 96.3594048 579.3462272 108 544 108 C 508.6537728 108 480 96.3594048 480 82 Z" stroke-miterlimit="10"/></g><g transform="translate(-126,-46) scale(1,1)"><g><path fill="none" stroke="none"/><text fill="#000000" stroke="none" font-family="Arial" font-size="13px" font-style="normal" font-weight="bold" text-decoration="none" x="513.65185546875" y="82.5">Quản lí trả</text><text fill="#000000" stroke="none" font-family="Arial" font-size="13px" font-style="normal" font-weight="bold" text-decoration="none" x="525.925048828125" y="95.5">phòng</text></g></g><g transform="translate(-126,-46) scale(1,1)"><path fill="none" stroke="#000000" d="M 425 151 L 497 109" stroke-miterlimit="10"/></g><g transform="translate(-126,-46) scale(1,1)"><path fill="none" stroke="#000000" d="M 446 181 L 479 188" stroke-miterlimit="10"/></g><g transform="translate(-126,-46) scale(1,1)"><path fill="none" stroke="#000000" d="M 446 158 L 479 151" stroke-miterlimit="10"/></g><g transform="translate(-126,-46) scale(1,1)"><path fill="none" stroke="#000000" d="M 420 187 L 496 239" stroke-miterlimit="10"/></g><g transform="translate(-126,-46) scale(1,1)"><path fill="#C0C0C0" stroke="none" d="M 831 312 C 831 302.6111584 848.908608 295 871 295 C 893.091392 295 911 302.6111584 911 312 C 911 321.3888416 893.091392 329 871 329 C 848.908608 329 831 321.3888416 831 312 Z" opacity="0.2"/></g><g transform="translate(-126,-46) scale(1,1)"><path fill="#ffffff" stroke="none" d="M 824 305 C 824 295.6111584 841.908608 288 864 288 C 886.091392 288 904 295.6111584 904 305 C 904 314.3888416 886.091392 322 864 322 C 841.908608 322 824 314.3888416 824 305 Z"/></g><g transform="translate(-126,-46) scale(1,1)"><path fill="none" stroke="#000000" d="M 824 305 C 824 295.6111584 841.908608 288 864 288 C 886.091392 288 904 295.6111584 904 305 C 904 314.3888416 886.091392 322 864 322 C 841.908608 322 824 314.3888416 824 305 Z" stroke-miterlimit="10"/></g><g transform="translate(-126,-46) scale(1,1)"><g><path fill="none" stroke="none"/><text fill="#000000" stroke="none" font-family="Arial" font-size="13px" font-style="normal" font-weight="bold" text-decoration="none" x="843.0400390625" y="312">Update</text></g></g><g transform="translate(-126,-46) scale(1,1)"><path fill="#C0C0C0" stroke="none" d="M 959 232 C 959 222.6111584 976.908608 215 999 215 C 1021.091392 215 1039 222.6111584 1039 232 C 1039 241.3888416 1021.091392 249 999 249 C 976.908608 249 959 241.3888416 959 232 Z" opacity="0.2"/></g><g transform="translate(-126,-46) scale(1,1)"><path fill="#ffffff" stroke="none" d="M 952 225 C 952 215.6111584 969.908608 208 992 208 C 1014.091392 208 1032 215.6111584 1032 225 C 1032 234.3888416 1014.091392 242 992 242 C 969.908608 242 952 234.3888416 952 225 Z"/></g><g transform="translate(-126,-46) scale(1,1)"><path fill="none" stroke="#000000" d="M 952 225 C 952 215.6111584 969.908608 208 992 208 C 1014.091392 208 1032 215.6111584 1032 225 C 1032 234.3888416 1014.091392 242 992 242 C 969.908608 242 952 234.3888416 952 225 Z" stroke-miterlimit="10"/></g><g transform="translate(-126,-46) scale(1,1)"><g><path fill="none" stroke="none"/><text fill="#000000" stroke="none" font-family="Arial" font-size="13px" font-style="normal" font-weight="bold" text-decoration="none" x="975.385009765625" y="232">Thêm</text></g></g><g transform="translate(-126,-46) scale(1,1)"><path fill="#C0C0C0" stroke="none" d="M 959 320 C 959 310.6111584 976.908608 303 999 303 C 1021.091392 303 1039 310.6111584 1039 320 C 1039 329.3888416 1021.091392 337 999 337 C 976.908608 337 959 329.3888416 959 320 Z" opacity="0.2"/></g><g transform="translate(-126,-46) scale(1,1)"><path fill="#ffffff" stroke="none" d="M 952 313 C 952 303.6111584 969.908608 296 992 296 C 1014.091392 296 1032 303.6111584 1032 313 C 1032 322.3888416 1014.091392 330 992 330 C 969.908608 330 952 322.3888416 952 313 Z"/></g><g transform="translate(-126,-46) scale(1,1)"><path fill="none" stroke="#000000" d="M 952 313 C 952 303.6111584 969.908608 296 992 296 C 1014.091392 296 1032 303.6111584 1032 313 C 1032 322.3888416 1014.091392 330 992 330 C 969.908608 330 952 322.3888416 952 313 Z" stroke-miterlimit="10"/></g><g transform="translate(-126,-46) scale(1,1)"><g><path fill="none" stroke="none"/><text fill="#000000" stroke="none" font-family="Arial" font-size="13px" font-style="normal" font-weight="bold" text-decoration="none" x="980.4345703125" y="320">Xóa</text></g></g><g transform="translate(-126,-46) scale(1,1)"><path fill="#C0C0C0" stroke="none" d="M 967 400 C 967 390.6111584 984.908608 383 1007 383 C 1029.091392 383 1047 390.6111584 1047 400 C 1047 409.3888416 1029.091392 417 1007 417 C 984.908608 417 967 409.3888416 967 400 Z" opacity="0.2"/></g><g transform="translate(-126,-46) scale(1,1)"><path fill="#ffffff" stroke="none" d="M 960 393 C 960 383.6111584 977.908608 376 1000 376 C 1022.091392 376 1040 383.6111584 1040 393 C 1040 402.3888416 1022.091392 410 1000 410 C 977.908608 410 960 402.3888416 960 393 Z"/></g><g transform="translate(-126,-46) scale(1,1)"><path fill="none" stroke="#000000" d="M 960 393 C 960 383.6111584 977.908608 376 1000 376 C 1022.091392 376 1040 383.6111584 1040 393 C 1040 402.3888416 1022.091392 410 1000 410 C 977.908608 410 960 402.3888416 960 393 Z" stroke-miterlimit="10"/></g><g transform="translate(-126,-46) scale(1,1)"><g><path fill="none" stroke="none"/><text fill="#000000" stroke="none" font-family="Arial" font-size="13px" font-style="normal" font-weight="bold" text-decoration="none" x="987.6982421875" y="400">Sửa</text></g></g><g transform="translate(-126,-46) scale(1,1)"><path fill="none" stroke="#000000" d="M 963 243 L 893 287" stroke-miterlimit="10"/></g><g transform="translate(-126,-46) scale(1,1)"><path fill="#FFFFFF" stroke="none" d="M 905.7278128067385 269.0555640613414 L 893 287 L 914.6885550821108 283.3112904085247"/></g><g transform="translate(-126,-46) scale(1,1)"><path fill="none" stroke="#000000" d="M 905.7278128067385 269.0555640613414 L 893 287 L 914.6885550821108 283.3112904085247 L 905.7278128067385 269.0555640613414" stroke-miterlimit="10"/></g><g transform="translate(-126,-46) scale(1,1)"><path fill="none" stroke="#000000" d="M 951 310 L 905 308" stroke-miterlimit="10"/></g><g transform="translate(-126,-46) scale(1,1)"><path fill="#FFFFFF" stroke="none" d="M 925.6718653374654 300.47178749837013 L 905 308 L 924.9404662700127 317.2939660497811"/></g><g transform="translate(-126,-46) scale(1,1)"><path fill="none" stroke="#000000" d="M 925.6718653374654 300.47178749837013 L 905 308 L 924.9404662700127 317.2939660497811 L 925.6718653374654 300.47178749837013" stroke-miterlimit="10"/></g><g transform="translate(-126,-46) scale(1,1)"><path fill="none" stroke="#000000" d="M 972 375 L 892 323" stroke-miterlimit="10"/></g><g transform="translate(-126,-46) scale(1,1)"><path fill="#FFFFFF" stroke="none" d="M 913.6299359951345 327.0181922361166 L 892 323 L 904.4533834405214 341.13596539705975"/></g><g transform="translate(-126,-46) scale(1,1)"><path fill="none" stroke="#000000" d="M 913.6299359951345 327.0181922361166 L 892 323 L 904.4533834405214 341.13596539705975 L 913.6299359951345 327.0181922361166" stroke-miterlimit="10"/></g><g transform="translate(-126,-46) scale(1,1)"><path fill="none" stroke="#000000" d="M 857 287 L 800 136 L 609 96" stroke-miterlimit="10" stroke-dasharray="3"/></g><g transform="translate(-126,-46) scale(1,1)"><path fill="none" stroke="#000000" d="M 619.8097436450445 93.96298200095836 L 609 96 L 618.0840322748205 102.20325379377778" stroke-miterlimit="10"/></g><g transform="translate(-126,-46) scale(1,1)"><g><path fill="none" stroke="none"/><text fill="#000000" stroke="none" font-family="Arial" font-size="13px" font-style="normal" font-weight="normal" text-decoration="none" x="708.5" y="110.5">«extend»</text></g></g><g transform="translate(-126,-46) scale(1,1)"><path fill="none" stroke="#000000" d="M 849 287 L 744 160 L 609 145" stroke-miterlimit="10" stroke-dasharray="3"/></g><g transform="translate(-126,-46) scale(1,1)"><path fill="none" stroke="#000000" d="M 619.5653807116051 141.93850846500584 L 609 145 L 618.6356537719332 150.306050922054" stroke-miterlimit="10"/></g><g transform="translate(-126,-46) scale(1,1)"><g><path fill="none" stroke="none"/><text fill="#000000" stroke="none" font-family="Arial" font-size="13px" font-style="normal" font-weight="normal" text-decoration="none" x="693.5" y="149.5">«extend»</text></g></g><g transform="translate(-126,-46) scale(1,1)"><path fill="none" stroke="#000000" d="M 841 287 L 752 216 L 601 206" stroke-miterlimit="10" stroke-dasharray="3"/></g><g transform="translate(-126,-46) scale(1,1)"><path fill="none" stroke="#000000" d="M 611.418628994919 202.47123677951708 L 601 206 L 610.8622956153791 210.87187081056888" stroke-miterlimit="10"/></g><g transform="translate(-126,-46) scale(1,1)"><g><path fill="none" stroke="none"/><text fill="#000000" stroke="none" font-family="Arial" font-size="13px" font-style="normal" font-weight="normal" text-decoration="none" x="685.5" y="207.5">«extend»</text></g></g><g transform="translate(-126,-46) scale(1,1)"><path fill="none" stroke="#000000" d="M 823 291 L 744 264 L 593 265" stroke-miterlimit="10" stroke-dasharray="3"/></g><g transform="translate(-126,-46) scale(1,1)"><path fill="none" stroke="#000000" d="M 603.1345750193228 260.72327354420247 L 593 265 L 603.1903289987813 269.1421244424326" stroke-miterlimit="10"/></g><g transform="translate(-126,-46) scale(1,1)"><g><path fill="none" stroke="none"/><text fill="#000000" stroke="none" font-family="Arial" font-size="13px" font-style="normal" font-weight="normal" text-decoration="none" x="670.5" y="263.5">«extend»</text></g></g><g transform="translate(-126,-46) scale(1,1)"><path fill="none" stroke="#000000" d="M 823 320 L 736 352 L 593 371" stroke-miterlimit="10" stroke-dasharray="3"/></g><g transform="translate(-126,-46) scale(1,1)"><path fill="none" stroke="#000000" d="M 602.5197070127531 365.4886318947706 L 593 371 L 603.6285751444498 373.8343236228039" stroke-miterlimit="10"/></g><g transform="translate(-126,-46) scale(1,1)"><g><path fill="none" stroke="none"/><text fill="#000000" stroke="none" font-family="Arial" font-size="13px" font-style="normal" font-weight="normal" text-decoration="none" x="679.5" y="380.5">«extend»</text></g></g><g transform="translate(-126,-46) scale(1,1)"><path fill="none" stroke="#000000" d="M 845 323 L 744 416 L 593 435" stroke-miterlimit="10" stroke-dasharray="3"/></g><g transform="translate(-126,-46) scale(1,1)"><path fill="none" stroke="#000000" d="M 602.5576362679624 429.5546727399236 L 593 435 L 603.6086972485706 437.9078415858107" stroke-miterlimit="10"/></g><g transform="translate(-126,-46) scale(1,1)"><g><path fill="none" stroke="none"/><text fill="#000000" stroke="none" font-family="Arial" font-size="13px" font-style="normal" font-weight="normal" text-decoration="none" x="679.5" y="436.5">«extend»</text></g></g><g transform="translate(-126,-46) scale(1,1)"><path fill="none" stroke="#000000" d="M 854 323 L 776 464 L 593 490" stroke-miterlimit="10" stroke-dasharray="3"/></g><g transform="translate(-126,-46) scale(1,1)"><path fill="none" stroke="#000000" d="M 602.469504357813 484.4028143484996 L 593 490 L 603.653758675621 492.7381428161491" stroke-miterlimit="10"/></g><g transform="translate(-126,-46) scale(1,1)"><g><path fill="none" stroke="none"/><text fill="#000000" stroke="none" font-family="Arial" font-size="13px" font-style="normal" font-weight="normal" text-decoration="none" x="674.5" y="498.5">«extend»</text></g></g></g></svg>