<svg version="1.1" xmlns="http://www.w3.org/2000/svg" xmlns:xlink="http://www.w3.org/1999/xlink" width="821" height="664"><defs/><g><g transform="translate(3,-14) scale(1,1)"><path fill="#ffffff" stroke="none" d="M 80.76799289772727 273.68 C 80.76799289772727 268.886167936 84.65383522267273 265 89.447265625 265 C 94.24069602732727 265 98.12653835227273 268.886167936 98.12653835227273 273.68 C 98.12653835227273 278.473832064 94.24069602732727 282.36 89.447265625 282.36 C 84.65383522267273 282.36 80.76799289772727 278.473832064 80.76799289772727 273.68 Z"/></g><g transform="translate(3,-14) scale(1,1)"><path fill="none" stroke="#000000" d="M 80.76799289772727 273.68 C 80.76799289772727 268.886167936 84.65383522267273 265 89.447265625 265 C 94.24069602732727 265 98.12653835227273 268.886167936 98.12653835227273 273.68 C 98.12653835227273 278.473832064 94.24069602732727 282.36 89.447265625 282.36 C 84.65383522267273 282.36 80.76799289772727 278.473832064 80.76799289772727 273.68 Z" stroke-miterlimit="10"/></g><g transform="translate(3,-14) scale(1,1)"><path fill="none" stroke="#000000" d="M 89.447265625 282.36 L 89.447265625 299.64" stroke-miterlimit="10"/></g><g transform="translate(3,-14) scale(1,1)"><path fill="none" stroke="#000000" d="M 80.25744744318182 288.84 L 98.63708380681818 288.84" stroke-miterlimit="10"/></g><g transform="translate(3,-14) scale(1,1)"><path fill="none" stroke="#000000" d="M 89.447265625 299.64 L 76.68362926136363 317" stroke-miterlimit="10"/></g><g transform="translate(3,-14) scale(1,1)"><path fill="none" stroke="#000000" d="M 89.447265625 299.64 L 102.21090198863637 317" stroke-miterlimit="10"/></g><g transform="translate(3,-14) scale(1,1)"><g><path fill="none" stroke="none"/><text fill="#000000" stroke="none" font-family="Arial" font-size="13px" font-style="normal" font-weight="bold" text-decoration="none" x="69.2109375" y="337.5">Lễ Tân</text></g></g><g transform="translate(3,-14) scale(1,1)"><path fill="#ffffff" stroke="none" d="M 81.01799289772727 417.68 C 81.01799289772727 412.886167936 84.90383522267273 409 89.697265625 409 C 94.49069602732727 409 98.37653835227273 412.886167936 98.37653835227273 417.68 C 98.37653835227273 422.473832064 94.49069602732727 426.36 89.697265625 426.36 C 84.90383522267273 426.36 81.01799289772727 422.473832064 81.01799289772727 417.68 Z"/></g><g transform="translate(3,-14) scale(1,1)"><path fill="none" stroke="#000000" d="M 81.01799289772727 417.68 C 81.01799289772727 412.886167936 84.90383522267273 409 89.697265625 409 C 94.49069602732727 409 98.37653835227273 412.886167936 98.37653835227273 417.68 C 98.37653835227273 422.473832064 94.49069602732727 426.36 89.697265625 426.36 C 84.90383522267273 426.36 81.01799289772727 422.473832064 81.01799289772727 417.68 Z" stroke-miterlimit="10"/></g><g transform="translate(3,-14) scale(1,1)"><path fill="none" stroke="#000000" d="M 89.697265625 426.36 L 89.697265625 443.64" stroke-miterlimit="10"/></g><g transform="translate(3,-14) scale(1,1)"><path fill="none" stroke="#000000" d="M 80.50744744318182 432.84 L 98.88708380681818 432.84" stroke-miterlimit="10"/></g><g transform="translate(3,-14) scale(1,1)"><path fill="none" stroke="#000000" d="M 89.697265625 443.64 L 76.93362926136363 461" stroke-miterlimit="10"/></g><g transform="translate(3,-14) scale(1,1)"><path fill="none" stroke="#000000" d="M 89.697265625 443.64 L 102.46090198863637 461" stroke-miterlimit="10"/></g><g transform="translate(3,-14) scale(1,1)"><g><path fill="none" stroke="none"/><text fill="#000000" stroke="none" font-family="Arial" font-size="13px" font-style="normal" font-weight="bold" text-decoration="none" x="55.0009765625" y="481.5">Khách hàng</text></g></g><g transform="translate(3,-14) scale(1,1)"><path fill="none" stroke="#000000" d="M 89 407 L 89 344" stroke-miterlimit="10"/></g><g transform="translate(3,-14) scale(1,1)"><path fill="none" stroke="#000000" d="M 93.20951775601598 354.16267485762415 L 89 344 L 84.79048224398402 354.16267485762415" stroke-miterlimit="10"/></g><g transform="translate(3,-14) scale(1,1)"><g><path fill="none" stroke="none"/><text fill="#000000" stroke="none" font-family="Arial" font-size="13px" font-style="normal" font-weight="normal" text-decoration="none" x="11.200439453125" y="392.5">+Đặt phòng</text></g></g><g transform="translate(3,-14) scale(1,1)"><path fill="#C0C0C0" stroke="none" d="M 223 137 C 223 122.6405952 253.4446336 111 291 111 C 328.5553664 111 359 122.6405952 359 137 C 359 151.3594048 328.5553664 163 291 163 C 253.4446336 163 223 151.3594048 223 137 Z" opacity="0.2"/></g><g transform="translate(3,-14) scale(1,1)"><path fill="#ffffff" stroke="none" d="M 216 130 C 216 115.6405952 246.4446336 104 284 104 C 321.5553664 104 352 115.6405952 352 130 C 352 144.3594048 321.5553664 156 284 156 C 246.4446336 156 216 144.3594048 216 130 Z"/></g><g transform="translate(3,-14) scale(1,1)"><path fill="none" stroke="#000000" d="M 216 130 C 216 115.6405952 246.4446336 104 284 104 C 321.5553664 104 352 115.6405952 352 130 C 352 144.3594048 321.5553664 156 284 156 C 246.4446336 156 216 144.3594048 216 130 Z" stroke-miterlimit="10"/></g><g transform="translate(3,-14) scale(1,1)"><g><path fill="none" stroke="none"/><text fill="#000000" stroke="none" font-family="Arial" font-size="13px" font-style="normal" font-weight="bold" text-decoration="none" x="254.724609375" y="130.5">Lập Phiếu</text><text fill="#000000" stroke="none" font-family="Arial" font-size="13px" font-style="normal" font-weight="bold" text-decoration="none" x="255.083251953125" y="143.5">đặt phòng</text></g></g><g transform="translate(3,-14) scale(1,1)"><path fill="#C0C0C0" stroke="none" d="M 447 219 C 447 203.5360256 482.81721600000003 191 527 191 C 571.182784 191 607 203.5360256 607 219 C 607 234.4639744 571.182784 247 527 247 C 482.81721600000003 247 447 234.4639744 447 219 Z" opacity="0.2"/></g><g transform="translate(3,-14) scale(1,1)"><path fill="#ffffff" stroke="none" d="M 440 212 C 440 196.5360256 475.81721600000003 184 520 184 C 564.182784 184 600 196.5360256 600 212 C 600 227.4639744 564.182784 240 520 240 C 475.81721600000003 240 440 227.4639744 440 212 Z"/></g><g transform="translate(3,-14) scale(1,1)"><path fill="none" stroke="#000000" d="M 440 212 C 440 196.5360256 475.81721600000003 184 520 184 C 564.182784 184 600 196.5360256 600 212 C 600 227.4639744 564.182784 240 520 240 C 475.81721600000003 240 440 227.4639744 440 212 Z" stroke-miterlimit="10"/></g><g transform="translate(3,-14) scale(1,1)"><g><path fill="none" stroke="none"/><text fill="#000000" stroke="none" font-family="Arial" font-size="13px" font-style="normal" font-weight="bold" text-decoration="none" x="474.4619140625" y="212.5">Xác nhận thông</text><text fill="#000000" stroke="none" font-family="Arial" font-size="13px" font-style="normal" font-weight="bold" text-decoration="none" x="477.71826171875" y="225.5">tin khách hàng</text></g></g><g transform="translate(3,-14) scale(1,1)"><path fill="none" stroke="#000000" d="M 353 154 L 439 184" stroke-miterlimit="10" stroke-dasharray="3"/></g><g transform="translate(3,-14) scale(1,1)"><path fill="none" stroke="#000000" d="M 428.0179026150977 184.62732529721214 L 439 184 L 430.79089849581595 176.67807043915312" stroke-miterlimit="10"/></g><g transform="translate(3,-14) scale(1,1)"><g><path fill="none" stroke="none"/><text fill="#000000" stroke="none" font-family="Arial" font-size="13px" font-style="normal" font-weight="normal" text-decoration="none" x="375.5" y="160.5">+Include</text></g></g><g transform="translate(3,-14) scale(1,1)"><path fill="#C0C0C0" stroke="none" d="M 223 440 C 223 430.6111584 249.862912 423 283 423 C 316.137088 423 343 430.6111584 343 440 C 343 449.3888416 316.137088 457 283 457 C 249.862912 457 223 449.3888416 223 440 Z" opacity="0.2"/></g><g transform="translate(3,-14) scale(1,1)"><path fill="#ffffff" stroke="none" d="M 216 433 C 216 423.6111584 242.862912 416 276 416 C 309.137088 416 336 423.6111584 336 433 C 336 442.3888416 309.137088 450 276 450 C 242.862912 450 216 442.3888416 216 433 Z"/></g><g transform="translate(3,-14) scale(1,1)"><path fill="none" stroke="#000000" d="M 216 433 C 216 423.6111584 242.862912 416 276 416 C 309.137088 416 336 423.6111584 336 433 C 336 442.3888416 309.137088 450 276 450 C 242.862912 450 216 442.3888416 216 433 Z" stroke-miterlimit="10"/></g><g transform="translate(3,-14) scale(1,1)"><g><path fill="none" stroke="none"/><text fill="#000000" stroke="none" font-family="Arial" font-size="13px" font-style="normal" font-weight="bold" text-decoration="none" x="240.580078125" y="440">Nhận phòng</text></g></g><g transform="translate(3,-14) scale(1,1)"><path fill="#C0C0C0" stroke="none" d="M 239 568 C 239 558.6111584 262.505048 551 291.5 551 C 320.494952 551 344 558.6111584 344 568 C 344 577.3888416 320.494952 585 291.5 585 C 262.505048 585 239 577.3888416 239 568 Z" opacity="0.2"/></g><g transform="translate(3,-14) scale(1,1)"><path fill="#ffffff" stroke="none" d="M 232 561 C 232 551.6111584 255.505048 544 284.5 544 C 313.494952 544 337 551.6111584 337 561 C 337 570.3888416 313.494952 578 284.5 578 C 255.505048 578 232 570.3888416 232 561 Z"/></g><g transform="translate(3,-14) scale(1,1)"><path fill="none" stroke="#000000" d="M 232 561 C 232 551.6111584 255.505048 544 284.5 544 C 313.494952 544 337 551.6111584 337 561 C 337 570.3888416 313.494952 578 284.5 578 C 255.505048 578 232 570.3888416 232 561 Z" stroke-miterlimit="10"/></g><g transform="translate(3,-14) scale(1,1)"><g><path fill="none" stroke="none"/><text fill="#000000" stroke="none" font-family="Arial" font-size="13px" font-style="normal" font-weight="bold" text-decoration="none" x="255.1103515625" y="568">Trả phòng</text></g></g><g transform="translate(3,-14) scale(1,1)"><path fill="none" stroke="#000000" d="M 116 279 L 254 157" stroke-miterlimit="10"/></g><g transform="translate(3,-14) scale(1,1)"><g><path fill="none" stroke="none"/><text fill="#000000" stroke="none" font-family="Arial" font-size="13px" font-style="normal" font-weight="normal" text-decoration="none" x="142.5" y="211.5">+Create</text></g></g><g transform="translate(3,-14) scale(1,1)"><path fill="#C0C0C0" stroke="none" d="M 671 138.5 C 671 123.312168 703.2354944 111 743 111 C 782.7645056 111 815 123.312168 815 138.5 C 815 153.68783200000001 782.7645056 166 743 166 C 703.2354944 166 671 153.68783200000001 671 138.5 Z" opacity="0.2"/></g><g transform="translate(3,-14) scale(1,1)"><path fill="#ffffff" stroke="none" d="M 664 131.5 C 664 116.312168 696.2354944 104 736 104 C 775.7645056 104 808 116.312168 808 131.5 C 808 146.68783200000001 775.7645056 159 736 159 C 696.2354944 159 664 146.68783200000001 664 131.5 Z"/></g><g transform="translate(3,-14) scale(1,1)"><path fill="none" stroke="#000000" d="M 664 131.5 C 664 116.312168 696.2354944 104 736 104 C 775.7645056 104 808 116.312168 808 131.5 C 808 146.68783200000001 775.7645056 159 736 159 C 696.2354944 159 664 146.68783200000001 664 131.5 Z" stroke-miterlimit="10"/></g><g transform="translate(3,-14) scale(1,1)"><g><path fill="none" stroke="none"/><text fill="#000000" stroke="none" font-family="Arial" font-size="13px" font-style="normal" font-weight="bold" text-decoration="none" x="711.799560546875" y="132">Kiểm tra</text><text fill="#000000" stroke="none" font-family="Arial" font-size="13px" font-style="normal" font-weight="bold" text-decoration="none" x="701.3037109375" y="145">phòng trống</text></g></g><g transform="translate(3,-14) scale(1,1)"><path fill="none" stroke="#000000" d="M 116 322 L 250 415" stroke-miterlimit="10"/></g><g transform="translate(3,-14) scale(1,1)"><path fill="#C0C0C0" stroke="none" d="M 455 649 C 455 634.6405952 485.4446336 623 523 623 C 560.5553664 623 591 634.6405952 591 649 C 591 663.3594048 560.5553664 675 523 675 C 485.4446336 675 455 663.3594048 455 649 Z" opacity="0.2"/></g><g transform="translate(3,-14) scale(1,1)"><path fill="#ffffff" stroke="none" d="M 448 642 C 448 627.6405952 478.4446336 616 516 616 C 553.5553664 616 584 627.6405952 584 642 C 584 656.3594048 553.5553664 668 516 668 C 478.4446336 668 448 656.3594048 448 642 Z"/></g><g transform="translate(3,-14) scale(1,1)"><path fill="none" stroke="#000000" d="M 448 642 C 448 627.6405952 478.4446336 616 516 616 C 553.5553664 616 584 627.6405952 584 642 C 584 656.3594048 553.5553664 668 516 668 C 478.4446336 668 448 656.3594048 448 642 Z" stroke-miterlimit="10"/></g><g transform="translate(3,-14) scale(1,1)"><g><path fill="none" stroke="none"/><text fill="#000000" stroke="none" font-family="Arial" font-size="13px" font-style="normal" font-weight="bold" text-decoration="none" x="476.679443359375" y="649">Xuất hóa đơn</text></g></g><g transform="translate(3,-14) scale(1,1)"><path fill="none" stroke="#000000" d="M 336 579 L 447 618" stroke-miterlimit="10" stroke-dasharray="3"/></g><g transform="translate(3,-14) scale(1,1)"><path fill="none" stroke="#000000" d="M 436.0165251777209 618.602727822786 L 447 618 L 438.80731754147286 610.6597034028765" stroke-miterlimit="10"/></g><g transform="translate(3,-14) scale(1,1)"><g><path fill="none" stroke="none"/><text fill="#000000" stroke="none" font-family="Arial" font-size="13px" font-style="normal" font-weight="normal" text-decoration="none" x="355.5" y="588.5">«include»</text></g></g><g transform="translate(3,-14) scale(1,1)"><path fill="#C0C0C0" stroke="none" d="M 671 217 C 671 202.6405952 703.2354944 191 743 191 C 782.7645056 191 815 202.6405952 815 217 C 815 231.3594048 782.7645056 243 743 243 C 703.2354944 243 671 231.3594048 671 217 Z" opacity="0.2"/></g><g transform="translate(3,-14) scale(1,1)"><path fill="#ffffff" stroke="none" d="M 664 210 C 664 195.6405952 696.2354944 184 736 184 C 775.7645056 184 808 195.6405952 808 210 C 808 224.3594048 775.7645056 236 736 236 C 696.2354944 236 664 224.3594048 664 210 Z"/></g><g transform="translate(3,-14) scale(1,1)"><path fill="none" stroke="#000000" d="M 664 210 C 664 195.6405952 696.2354944 184 736 184 C 775.7645056 184 808 195.6405952 808 210 C 808 224.3594048 775.7645056 236 736 236 C 696.2354944 236 664 224.3594048 664 210 Z" stroke-miterlimit="10"/></g><g transform="translate(3,-14) scale(1,1)"><g><path fill="none" stroke="none"/><text fill="#000000" stroke="none" font-family="Arial" font-size="13px" font-style="normal" font-weight="bold" text-decoration="none" x="697.676025390625" y="210.5">Lưu thông tin</text><text fill="#000000" stroke="none" font-family="Arial" font-size="13px" font-style="normal" font-weight="bold" text-decoration="none" x="702.38916015625" y="223.5">khách hàng</text></g></g><g transform="translate(3,-14) scale(1,1)"><path fill="none" stroke="#000000" d="M 663 211 L 601 211" stroke-miterlimit="10" stroke-dasharray="3"/></g><g transform="translate(3,-14) scale(1,1)"><path fill="none" stroke="#000000" d="M 611.1626748576241 206.790482243984 L 601 211 L 611.1626748576241 215.209517756016" stroke-miterlimit="10"/></g><g transform="translate(3,-14) scale(1,1)"><g><path fill="none" stroke="none"/><text fill="#000000" stroke="none" font-family="Arial" font-size="13px" font-style="normal" font-weight="normal" text-decoration="none" x="607.5" y="205.5">«extend»</text></g></g><g transform="translate(3,-14) scale(1,1)"><path fill="none" stroke="#000000" d="M 353 154 L 439 184" stroke-miterlimit="10" stroke-dasharray="3"/></g><g transform="translate(3,-14) scale(1,1)"><path fill="none" stroke="#000000" d="M 428.0179026150977 184.62732529721214 L 439 184 L 430.79089849581595 176.67807043915312" stroke-miterlimit="10"/></g><g transform="translate(3,-14) scale(1,1)"><g><path fill="none" stroke="none"/><text fill="#000000" stroke="none" font-family="Arial" font-size="13px" font-style="normal" font-weight="normal" text-decoration="none" x="350.5" y="188.5">«include»</text></g></g><g transform="translate(3,-14) scale(1,1)"><path fill="#C0C0C0" stroke="none" d="M 463 57 C 463 42.6405952 489.862912 31 523 31 C 556.137088 31 583 42.6405952 583 57 C 583 71.3594048 556.137088 83 523 83 C 489.862912 83 463 71.3594048 463 57 Z" opacity="0.2"/></g><g transform="translate(3,-14) scale(1,1)"><path fill="#ffffff" stroke="none" d="M 456 50 C 456 35.6405952 482.862912 24 516 24 C 549.137088 24 576 35.6405952 576 50 C 576 64.3594048 549.137088 76 516 76 C 482.862912 76 456 64.3594048 456 50 Z"/></g><g transform="translate(3,-14) scale(1,1)"><path fill="none" stroke="#000000" d="M 456 50 C 456 35.6405952 482.862912 24 516 24 C 549.137088 24 576 35.6405952 576 50 C 576 64.3594048 549.137088 76 516 76 C 482.862912 76 456 64.3594048 456 50 Z" stroke-miterlimit="10"/></g><g transform="translate(3,-14) scale(1,1)"><g><path fill="none" stroke="none"/><text fill="#000000" stroke="none" font-family="Arial" font-size="13px" font-style="normal" font-weight="bold" text-decoration="none" x="488.536865234375" y="50.5">Chọn loại</text><text fill="#000000" stroke="none" font-family="Arial" font-size="13px" font-style="normal" font-weight="bold" text-decoration="none" x="497.925048828125" y="63.5">phòng</text></g></g><g transform="translate(3,-14) scale(1,1)"><path fill="#C0C0C0" stroke="none" d="M 463 144 C 463 134.6111584 490.0867696 127 523.5 127 C 556.9132304 127 584 134.6111584 584 144 C 584 153.3888416 556.9132304 161 523.5 161 C 490.0867696 161 463 153.3888416 463 144 Z" opacity="0.2"/></g><g transform="translate(3,-14) scale(1,1)"><path fill="#ffffff" stroke="none" d="M 456 137 C 456 127.6111584 483.0867696 120 516.5 120 C 549.9132304 120 577 127.6111584 577 137 C 577 146.3888416 549.9132304 154 516.5 154 C 483.0867696 154 456 146.3888416 456 137 Z"/></g><g transform="translate(3,-14) scale(1,1)"><path fill="none" stroke="#000000" d="M 456 137 C 456 127.6111584 483.0867696 120 516.5 120 C 549.9132304 120 577 127.6111584 577 137 C 577 146.3888416 549.9132304 154 516.5 154 C 483.0867696 154 456 146.3888416 456 137 Z" stroke-miterlimit="10"/></g><g transform="translate(3,-14) scale(1,1)"><g><path fill="none" stroke="none"/><text fill="#000000" stroke="none" font-family="Arial" font-size="13px" font-style="normal" font-weight="bold" text-decoration="none" x="481.080078125" y="144">Chọn phòng</text></g></g><g transform="translate(3,-14) scale(1,1)"><path fill="none" stroke="#000000" d="M 516 77 L 516 119" stroke-miterlimit="10" stroke-dasharray="3"/></g><g transform="translate(3,-14) scale(1,1)"><path fill="none" stroke="#000000" d="M 511.790482243984 108.83732514237585 L 516 119 L 520.209517756016 108.83732514237585" stroke-miterlimit="10"/></g><g transform="translate(3,-14) scale(1,1)"><g><path fill="none" stroke="none"/><text fill="#000000" stroke="none" font-family="Arial" font-size="13px" font-style="normal" font-weight="normal" text-decoration="none" x="506.5" y="103.5">+enable</text></g></g><g transform="translate(3,-14) scale(1,1)"><g><path fill="none" stroke="none"/><text fill="#000000" stroke="none" font-family="Arial" font-size="13px" font-style="normal" font-weight="normal" text-decoration="none" x="567.5" y="84.5">«include»</text></g></g><g transform="translate(3,-14) scale(1,1)"><path fill="none" stroke="#000000" d="M 516 77 L 516 119" stroke-miterlimit="10" stroke-dasharray="3"/></g><g transform="translate(3,-14) scale(1,1)"><path fill="none" stroke="#000000" d="M 511.790482243984 108.83732514237585 L 516 119 L 520.209517756016 108.83732514237585" stroke-miterlimit="10"/></g><g transform="translate(3,-14) scale(1,1)"><path fill="none" stroke="#000000" d="M 578 135 L 663 133" stroke-miterlimit="10" stroke-dasharray="3"/></g><g transform="translate(3,-14) scale(1,1)"><path fill="none" stroke="#000000" d="M 652.9391572420022 137.44740857116196 L 663 133 L 652.7411171019925 129.03070262074405" stroke-miterlimit="10"/></g><g transform="translate(3,-14) scale(1,1)"><path fill="none" stroke="#000000" d="M 353 106 L 455 71" stroke-miterlimit="10" stroke-dasharray="3"/></g><g transform="translate(3,-14) scale(1,1)"><path fill="none" stroke="#000000" d="M 446.7537322342692 78.28004587457173 L 455 71 L 444.0212383381129 70.31677794863052" stroke-miterlimit="10"/></g><g transform="translate(3,-14) scale(1,1)"><g><path fill="none" stroke="none"/><text fill="#000000" stroke="none" font-family="Arial" font-size="13px" font-style="normal" font-weight="normal" text-decoration="none" x="367.5" y="83.5">«include»</text></g></g><g transform="translate(3,-14) scale(1,1)"><path fill="none" stroke="#000000" d="M 353 132 L 455 135" stroke-miterlimit="10" stroke-dasharray="3"/></g><g transform="translate(3,-14) scale(1,1)"><path fill="none" stroke="#000000" d="M 444.7179620834851 138.90892520820617 L 455 135 L 444.96547374294147 130.49352878668873" stroke-miterlimit="10"/></g><g transform="translate(3,-14) scale(1,1)"><g><path fill="none" stroke="none"/><text fill="#000000" stroke="none" font-family="Arial" font-size="13px" font-style="normal" font-weight="normal" text-decoration="none" x="374.5" y="132.5">«include»</text></g></g><g transform="translate(3,-14) scale(1,1)"><path fill="#C0C0C0" stroke="none" d="M 231 298.5 C 231 278.8938896 259.6537728 263 295 263 C 330.3462272 263 359 278.8938896 359 298.5 C 359 318.1061104 330.3462272 334 295 334 C 259.6537728 334 231 318.1061104 231 298.5 Z" opacity="0.2"/></g><g transform="translate(3,-14) scale(1,1)"><path fill="#ffffff" stroke="none" d="M 224 291.5 C 224 271.8938896 252.6537728 256 288 256 C 323.3462272 256 352 271.8938896 352 291.5 C 352 311.1061104 323.3462272 327 288 327 C 252.6537728 327 224 311.1061104 224 291.5 Z"/></g><g transform="translate(3,-14) scale(1,1)"><path fill="none" stroke="#000000" d="M 224 291.5 C 224 271.8938896 252.6537728 256 288 256 C 323.3462272 256 352 271.8938896 352 291.5 C 352 311.1061104 323.3462272 327 288 327 C 252.6537728 327 224 311.1061104 224 291.5 Z" stroke-miterlimit="10"/></g><g transform="translate(3,-14) scale(1,1)"><g><path fill="none" stroke="none"/><text fill="#000000" stroke="none" font-family="Arial" font-size="13px" font-style="normal" font-weight="bold" text-decoration="none" x="263.799560546875" y="285.5">Kiểm tra</text><text fill="#000000" stroke="none" font-family="Arial" font-size="13px" font-style="normal" font-weight="bold" text-decoration="none" x="258.004150390625" y="298.5">danh sách</text><text fill="#000000" stroke="none" font-family="Arial" font-size="13px" font-style="normal" font-weight="bold" text-decoration="none" x="259.083251953125" y="311.5">đặt phòng</text></g></g><g transform="translate(3,-14) scale(1,1)"><path fill="#C0C0C0" stroke="none" d="M 439 298.5 C 439 278.8938896 478.3989376 263 527 263 C 575.6010624 263 615 278.8938896 615 298.5 C 615 318.1061104 575.6010624 334 527 334 C 478.3989376 334 439 318.1061104 439 298.5 Z" opacity="0.2"/></g><g transform="translate(3,-14) scale(1,1)"><path fill="#ffffff" stroke="none" d="M 432 291.5 C 432 271.8938896 471.3989376 256 520 256 C 568.6010624 256 608 271.8938896 608 291.5 C 608 311.1061104 568.6010624 327 520 327 C 471.3989376 327 432 311.1061104 432 291.5 Z"/></g><g transform="translate(3,-14) scale(1,1)"><path fill="none" stroke="#000000" d="M 432 291.5 C 432 271.8938896 471.3989376 256 520 256 C 568.6010624 256 608 271.8938896 608 291.5 C 608 311.1061104 568.6010624 327 520 327 C 471.3989376 327 432 311.1061104 432 291.5 Z" stroke-miterlimit="10"/></g><g transform="translate(3,-14) scale(1,1)"><g><path fill="none" stroke="none"/><text fill="#000000" stroke="none" font-family="Arial" font-size="13px" font-style="normal" font-weight="bold" text-decoration="none" x="477.71826171875" y="285.5">Lọc danh sách</text><text fill="#000000" stroke="none" font-family="Arial" font-size="13px" font-style="normal" font-weight="bold" text-decoration="none" x="473.798583984375" y="298.5">phòng được đặt</text><text fill="#000000" stroke="none" font-family="Arial" font-size="13px" font-style="normal" font-weight="bold" text-decoration="none" x="491.4482421875" y="311.5">theo ngày</text></g></g><g transform="translate(3,-14) scale(1,1)"><path fill="none" stroke="#000000" d="M 431 291 L 353 291" stroke-miterlimit="10" stroke-dasharray="3"/></g><g transform="translate(3,-14) scale(1,1)"><path fill="none" stroke="#000000" d="M 363.16267485762415 286.790482243984 L 353 291 L 363.16267485762415 295.209517756016" stroke-miterlimit="10"/></g><g transform="translate(3,-14) scale(1,1)"><g><path fill="none" stroke="none"/><text fill="#000000" stroke="none" font-family="Arial" font-size="13px" font-style="normal" font-weight="normal" text-decoration="none" x="370.5" y="285.5">«extend»</text></g></g><g transform="translate(3,-14) scale(1,1)"><path fill="none" stroke="#000000" d="M 116 301 L 223 295" stroke-miterlimit="10"/></g><g transform="translate(3,-14) scale(1,1)"><path fill="none" stroke="#000000" d="M 116 339 L 270 543" stroke-miterlimit="10"/></g><g transform="translate(3,-14) scale(1,1)"><path fill="#C0C0C0" stroke="none" d="M 447 561 C 447 546.6405952 481.0263552 535 523 535 C 564.9736448 535 599 546.6405952 599 561 C 599 575.3594048 564.9736448 587 523 587 C 481.0263552 587 447 575.3594048 447 561 Z" opacity="0.2"/></g><g transform="translate(3,-14) scale(1,1)"><path fill="#ffffff" stroke="none" d="M 440 554 C 440 539.6405952 474.0263552 528 516 528 C 557.9736448 528 592 539.6405952 592 554 C 592 568.3594048 557.9736448 580 516 580 C 474.0263552 580 440 568.3594048 440 554 Z"/></g><g transform="translate(3,-14) scale(1,1)"><path fill="none" stroke="#000000" d="M 440 554 C 440 539.6405952 474.0263552 528 516 528 C 557.9736448 528 592 539.6405952 592 554 C 592 568.3594048 557.9736448 580 516 580 C 474.0263552 580 440 568.3594048 440 554 Z" stroke-miterlimit="10"/></g><g transform="translate(3,-14) scale(1,1)"><g><path fill="none" stroke="none"/><text fill="#000000" stroke="none" font-family="Arial" font-size="13px" font-style="normal" font-weight="bold" text-decoration="none" x="475.96533203125" y="554.5">Tổng hợp các</text><text fill="#000000" stroke="none" font-family="Arial" font-size="13px" font-style="normal" font-weight="bold" text-decoration="none" x="496.84912109375" y="567.5">chi phí</text></g></g><g transform="translate(3,-14) scale(1,1)"><path fill="none" stroke="#000000" d="M 338 559 L 439 556" stroke-miterlimit="10" stroke-dasharray="3"/></g><g transform="translate(3,-14) scale(1,1)"><path fill="none" stroke="#000000" d="M 428.9667853317696 560.5093905820196 L 439 556 L 428.7168252114292 552.0940665305587" stroke-miterlimit="10"/></g><g transform="translate(3,-14) scale(1,1)"><g><path fill="none" stroke="none"/><text fill="#000000" stroke="none" font-family="Arial" font-size="13px" font-style="normal" font-weight="normal" text-decoration="none" x="356.5" y="553.5">«include»</text></g></g><g transform="translate(3,-14) scale(1,1)"><path fill="none" stroke="#000000" d="M 516 581 L 516 615" stroke-miterlimit="10" stroke-dasharray="3"/></g><g transform="translate(3,-14) scale(1,1)"><path fill="none" stroke="#000000" d="M 511.790482243984 604.8373251423759 L 516 615 L 520.209517756016 604.8373251423759" stroke-miterlimit="10"/></g><g transform="translate(3,-14) scale(1,1)"><path fill="#C0C0C0" stroke="none" d="M 455 393 C 455 378.6405952 487.2354944 367 527 367 C 566.7645056 367 599 378.6405952 599 393 C 599 407.3594048 566.7645056 419 527 419 C 487.2354944 419 455 407.3594048 455 393 Z" opacity="0.2"/></g><g transform="translate(3,-14) scale(1,1)"><path fill="#ffffff" stroke="none" d="M 448 386 C 448 371.6405952 480.2354944 360 520 360 C 559.7645056 360 592 371.6405952 592 386 C 592 400.3594048 559.7645056 412 520 412 C 480.2354944 412 448 400.3594048 448 386 Z"/></g><g transform="translate(3,-14) scale(1,1)"><path fill="none" stroke="#000000" d="M 448 386 C 448 371.6405952 480.2354944 360 520 360 C 559.7645056 360 592 371.6405952 592 386 C 592 400.3594048 559.7645056 412 520 412 C 480.2354944 412 448 400.3594048 448 386 Z" stroke-miterlimit="10"/></g><g transform="translate(3,-14) scale(1,1)"><g><path fill="none" stroke="none"/><text fill="#000000" stroke="none" font-family="Arial" font-size="13px" font-style="normal" font-weight="bold" text-decoration="none" x="479.219482421875" y="386.5">Lựa chọn đơn</text><text fill="#000000" stroke="none" font-family="Arial" font-size="13px" font-style="normal" font-weight="bold" text-decoration="none" x="491.083251953125" y="399.5">đặt phòng</text></g></g><g transform="translate(3,-14) scale(1,1)"><path fill="none" stroke="#000000" d="M 454 359 L 353 318" stroke-miterlimit="10" stroke-dasharray="3"/></g><g transform="translate(3,-14) scale(1,1)"><path fill="none" stroke="#000000" d="M 363.99972414888214 317.92209846921037 L 353 318 L 360.83306423754215 325.7228948361698" stroke-miterlimit="10"/></g><g transform="translate(3,-14) scale(1,1)"><g><path fill="none" stroke="none"/><text fill="#000000" stroke="none" font-family="Arial" font-size="13px" font-style="normal" font-weight="normal" text-decoration="none" x="383.5" y="332.5">«include»</text></g></g><g transform="translate(3,-14) scale(1,1)"><path fill="none" stroke="#000000" d="M 447 400 L 337 421" stroke-miterlimit="10" stroke-dasharray="3"/></g><g transform="translate(3,-14) scale(1,1)"><path fill="none" stroke="#000000" d="M 346.19301329944966 414.95942829889907 L 337 421 L 347.771771255671 423.229112831487" stroke-miterlimit="10"/></g><g transform="translate(3,-14) scale(1,1)"><g><path fill="none" stroke="none"/><text fill="#000000" stroke="none" font-family="Arial" font-size="13px" font-style="normal" font-weight="normal" text-decoration="none" x="361.5" y="405.5">«extend»</text></g></g><g transform="translate(3,-14) scale(1,1)"><path fill="none" stroke="#000000" d="M 520 328 L 520 359" stroke-miterlimit="10" stroke-dasharray="3"/></g><g transform="translate(3,-14) scale(1,1)"><path fill="none" stroke="#000000" d="M 515.790482243984 348.83732514237585 L 520 359 L 524.209517756016 348.83732514237585" stroke-miterlimit="10"/></g><g transform="translate(3,-14) scale(1,1)"><g><path fill="none" stroke="none"/><text fill="#000000" stroke="none" font-family="Arial" font-size="13px" font-style="normal" font-weight="normal" text-decoration="none" x="522.5" y="348.5">«extend»</text></g></g><g transform="translate(3,-14) scale(1,1)"><path fill="#C0C0C0" stroke="none" d="M 447 473 C 447 458.6405952 484.6080768 447 531 447 C 577.3919232 447 615 458.6405952 615 473 C 615 487.3594048 577.3919232 499 531 499 C 484.6080768 499 447 487.3594048 447 473 Z" opacity="0.2"/></g><g transform="translate(3,-14) scale(1,1)"><path fill="#ffffff" stroke="none" d="M 440 466 C 440 451.6405952 477.6080768 440 524 440 C 570.3919232 440 608 451.6405952 608 466 C 608 480.3594048 570.3919232 492 524 492 C 477.6080768 492 440 480.3594048 440 466 Z"/></g><g transform="translate(3,-14) scale(1,1)"><path fill="none" stroke="#000000" d="M 440 466 C 440 451.6405952 477.6080768 440 524 440 C 570.3919232 440 608 451.6405952 608 466 C 608 480.3594048 570.3919232 492 524 492 C 477.6080768 492 440 480.3594048 440 466 Z" stroke-miterlimit="10"/></g><g transform="translate(3,-14) scale(1,1)"><g><path fill="none" stroke="none"/><text fill="#000000" stroke="none" font-family="Arial" font-size="13px" font-style="normal" font-weight="bold" text-decoration="none" x="487.497802734375" y="466.5">Xác nhận đã</text><text fill="#000000" stroke="none" font-family="Arial" font-size="13px" font-style="normal" font-weight="bold" text-decoration="none" x="489.6591796875" y="479.5">nhận phòng</text></g></g><g transform="translate(3,-14) scale(1,1)"><path fill="none" stroke="#000000" d="M 439 455 L 337 441" stroke-miterlimit="10" stroke-dasharray="3"/></g><g transform="translate(3,-14) scale(1,1)"><path fill="none" stroke="#000000" d="M 347.6406899729293 438.21150275237676 L 337 441 L 346.49586934947644 446.55233872324754" stroke-miterlimit="10"/></g><g transform="translate(3,-14) scale(1,1)"><g><path fill="none" stroke="none"/><text fill="#000000" stroke="none" font-family="Arial" font-size="13px" font-style="normal" font-weight="normal" text-decoration="none" x="367.5" y="467.5">«extend»</text></g></g></g></svg>